<svg id="Layer_1" enable-background="new 0 0 512.081 512.081" height="512" viewBox="0 0 512.081 512.081" width="512" xmlns="http://www.w3.org/2000/svg"><path d="m231.488 104.662c-3.129 0-6.222-.979-8.818-2.865-3.901-2.834-6.202-7.371-6.183-12.192l.079-20.602-12.174-16.621c-2.849-3.89-3.654-8.913-2.164-13.499s5.093-8.176 9.685-9.648l19.618-6.292 12.046-16.713c2.819-3.912 7.347-6.23 12.168-6.23 4.822 0 9.35 2.318 12.169 6.229l12.046 16.713 19.618 6.292c4.592 1.472 8.195 5.062 9.685 9.648s.685 9.608-2.164 13.499l-12.173 16.621.079 20.603c.019 4.822-2.282 9.358-6.183 12.192s-8.928 3.62-13.507 2.113l-19.569-6.441-19.57 6.441c-1.532.504-3.115.752-4.688.752z" fill="#ffef31"/><path d="m419.452 164.304c-1.833 0-3.673-.336-5.428-1.017l-19.205-7.457-19.88 5.409c-4.652 1.266-9.63.218-13.377-2.817-3.748-3.035-5.808-7.686-5.537-12.5l1.157-20.57-11.287-17.236c-2.642-4.034-3.183-9.092-1.455-13.593s5.515-7.897 10.177-9.127l19.92-5.256 12.903-16.061c3.02-3.759 7.661-5.835 12.478-5.584 4.815.252 9.216 2.804 11.826 6.858l11.156 17.321 19.262 7.31c4.508 1.71 7.918 5.484 9.167 10.142 1.248 4.658.181 9.631-2.868 13.367l-13.027 15.961-1 20.578c-.234 4.816-2.769 9.226-6.813 11.852-2.464 1.601-5.307 2.42-8.169 2.42z" fill="#fdbf00"/><path d="m477.951 305.533c-1.833 0-3.673-.336-5.428-1.017l-19.205-7.457-19.88 5.408c-4.654 1.265-9.631.217-13.377-2.817-3.747-3.035-5.807-7.686-5.536-12.5l1.157-20.569-11.287-17.235c-2.642-4.034-3.183-9.092-1.455-13.593s5.514-7.898 10.177-9.128l19.92-5.256 12.905-16.061c3.02-3.758 7.661-5.831 12.478-5.584 4.815.252 9.215 2.804 11.826 6.858l11.154 17.321 19.262 7.31c4.508 1.71 7.919 5.484 9.167 10.142s.181 9.631-2.868 13.367l-13.027 15.961-1 20.578c-.234 4.816-2.769 9.226-6.813 11.852-2.465 1.601-5.308 2.42-8.17 2.42z" fill="#fdbf00"/><path d="m420.711 445.911c-1.65 0-3.31-.272-4.91-.827l-19.467-6.745-19.667 6.137c-4.602 1.435-9.615.572-13.472-2.323-3.856-2.895-6.086-7.466-5.993-12.287l.399-20.598-11.914-16.808c-2.788-3.934-3.515-8.968-1.954-13.53 1.561-4.563 5.22-8.096 9.833-9.497l19.713-5.987 12.305-16.524c2.88-3.868 7.448-6.14 12.264-6.04 4.821.075 9.313 2.463 12.07 6.418l11.784 16.899 19.518 6.596c4.568 1.543 8.115 5.189 9.534 9.797s.536 9.618-2.374 13.463l-12.43 16.43-.241 20.601c-.057 4.821-2.427 9.322-6.372 12.095-2.557 1.799-5.577 2.73-8.626 2.73z" fill="#fdbf00"/><g fill="#ffef31"><path d="m90.259 445.538c-3.129 0-6.222-.979-8.818-2.865-3.901-2.834-6.202-7.371-6.183-12.192l.079-20.602-12.174-16.621c-2.849-3.89-3.654-8.913-2.164-13.499s5.093-8.176 9.685-9.648l19.618-6.292 12.046-16.713c2.819-3.912 7.347-6.229 12.169-6.229s9.35 2.318 12.169 6.229l12.046 16.713 19.618 6.292c4.592 1.472 8.195 5.062 9.685 9.648 1.49 4.585.685 9.608-2.164 13.498l-12.173 16.621.079 20.603c.018 4.822-2.283 9.358-6.184 12.192s-8.928 3.619-13.506 2.113l-19.569-6.441-19.57 6.441c-1.533.504-3.116.752-4.689.752z"/><path d="m31.736 304.309c-3.129 0-6.222-.979-8.818-2.865-3.901-2.834-6.202-7.371-6.183-12.192l.079-20.602-12.174-16.622c-2.849-3.89-3.654-8.913-2.164-13.499s5.093-8.176 9.685-9.648l19.618-6.292 12.046-16.713c2.819-3.912 7.347-6.229 12.169-6.229s9.35 2.318 12.169 6.229l12.046 16.713 19.618 6.292c4.592 1.472 8.195 5.062 9.685 9.648 1.49 4.585.685 9.608-2.164 13.498l-12.173 16.622.079 20.602c.019 4.822-2.282 9.358-6.183 12.192-3.902 2.834-8.927 3.62-13.507 2.113l-19.569-6.441-19.57 6.441c-1.533.505-3.116.753-4.689.753z"/><path d="m90.259 163.08c-3.129 0-6.222-.979-8.818-2.865-3.901-2.834-6.202-7.371-6.183-12.192l.079-20.602-12.174-16.621c-2.849-3.89-3.654-8.913-2.164-13.499s5.093-8.176 9.685-9.648l19.618-6.292 12.046-16.714c2.819-3.912 7.347-6.23 12.169-6.23s9.35 2.318 12.169 6.23l12.046 16.714 19.618 6.292c4.592 1.472 8.195 5.062 9.685 9.648 1.49 4.585.685 9.608-2.164 13.498l-12.173 16.621.079 20.602c.018 4.822-2.283 9.358-6.183 12.192-3.901 2.834-8.927 3.619-13.506 2.113l-19.569-6.441-19.57 6.441c-1.535.505-3.117.753-4.69.753z"/></g><path d="m299.746 233.984c-8.284 0-15-6.716-15-15v-15c0-15.991-13.009-29-29-29s-29 13.009-29 29v15c0 8.284-6.716 15-15 15s-15-6.716-15-15v-15c0-32.533 26.467-59 59-59s59 26.467 59 59v15c0 8.285-6.716 15-15 15z" fill="#f6efea"/><path d="m255.745 144.984c-.015 0-.03.001-.045.001v30c.015 0 .03-.001.045-.001 15.991 0 29 13.009 29 29v15c0 8.284 6.716 15 15 15s15-6.716 15-15v-15c.001-32.532-26.466-59-59-59z" fill="#eee1dc"/><path d="m231.488 512.081c-3.129 0-6.222-.979-8.818-2.865-3.901-2.834-6.202-7.371-6.183-12.192l.079-20.602-12.174-16.621c-2.849-3.89-3.654-8.913-2.164-13.499s5.093-8.176 9.685-9.648l19.618-6.292 12.046-16.714c2.819-3.912 7.347-6.23 12.169-6.23s9.35 2.318 12.169 6.23l12.046 16.714 19.618 6.292c4.592 1.472 8.195 5.062 9.685 9.648s.685 9.608-2.164 13.499l-12.173 16.621.079 20.602c.019 4.822-2.282 9.358-6.183 12.192s-8.927 3.621-13.507 2.113l-19.569-6.441-19.57 6.441c-1.533.504-3.116.752-4.689.752z" fill="#ffef31"/><path d="m287.746 346.919h-64.001c-24.813 0-45-20.187-45-45v-73c0-8.284 6.716-15 15-15h124c8.284 0 15 6.716 15 15v73c.001 24.813-20.186 45-44.999 45z" fill="#007a9f"/><path d="m317.746 213.919h-62.045v133h32.045c24.813 0 45-20.187 45-45v-73c0-8.284-6.716-15-15-15z" fill="#00607f"/><circle clip-rule="evenodd" cx="255.746" cy="280.419" fill="#76e2f8" fill-rule="evenodd" r="15"/><path d="m309.263 38.883c-1.49-4.586-5.093-8.176-9.685-9.648l-19.618-6.292-12.046-16.714c-2.819-3.911-7.347-6.229-12.169-6.229-.015 0-.03.003-.045.003v97.48l.045-.015 19.569 6.441c4.579 1.507 9.605.721 13.507-2.113 3.901-2.834 6.202-7.371 6.183-12.192l-.079-20.603 12.173-16.621c2.85-3.889 3.655-8.911 2.165-13.497z" fill="#fdbf00"/><path clip-rule="evenodd" d="m255.746 265.419c-.015 0-.03.002-.045.002v29.995c.015 0 .03.002.045.002 8.262 0 15-6.738 15-15s-6.739-14.999-15-14.999z" fill="#4bb9ec" fill-rule="evenodd"/><path d="m309.263 446.302c-1.49-4.586-5.093-8.176-9.685-9.648l-19.618-6.292-12.046-16.714c-2.819-3.912-7.347-6.23-12.169-6.23-.015 0-.03.003-.045.003v97.48l.045-.015 19.569 6.441c4.58 1.508 9.606.722 13.507-2.113 3.901-2.834 6.202-7.371 6.183-12.192l-.079-20.602 12.173-16.621c2.85-3.888 3.655-8.911 2.165-13.497z" fill="#fdbf00"/></svg>